<?xml version="1.0" encoding="UTF-8"?>
<svg version="1.1" xmlns="http://www.w3.org/2000/svg" width="55" height="53">
<path d="M0 0 C1.02867188 -0.01740234 1.02867188 -0.01740234 2.078125 -0.03515625 C8.16926705 -0.0002833 12.10114209 1.7021966 16.625 5.6875 C21.9812496 11.74851928 23.62089622 15.5666114 23.375 23.5 C23.37371094 24.29792969 23.37242188 25.09585937 23.37109375 25.91796875 C23.29771087 30.80200731 22.97832029 34.22465186 19.5625 37.9375 C19.046875 38.411875 18.53125 38.88625 18 39.375 C17.505 39.87 17.01 40.365 16.5 40.875 C16.005 41.37 15.51 41.865 15 42.375 C14.566875 42.890625 14.13375 43.40625 13.6875 43.9375 C9.24706409 47.72009356 3.98797109 47.5972545 -1.5625 47.25 C-2.84253906 47.18554688 -4.12257813 47.12109375 -5.44140625 47.0546875 C-11.08773182 45.97624551 -14.12192756 42.38234152 -18 38.375 C-18.50917969 37.93671875 -19.01835937 37.4984375 -19.54296875 37.046875 C-22.97595631 33.10768284 -23.07974624 26.38271969 -23.375 21.3125 C-22.91920536 16.52665632 -21.70013274 12.39186414 -19 8.375 C-17.67473352 7.69243794 -16.34194717 7.02415331 -15 6.375 C-14.67 5.385 -14.34 4.395 -14 3.375 C-9.4224733 0.40239882 -5.32996587 -0.0901686 0 0 Z " fill="#0C0A07" transform="translate(27,2.625)"/>
<path d="M0 0 C1.02867188 -0.01740234 1.02867188 -0.01740234 2.078125 -0.03515625 C8.19755585 -0.00012134 12.08086727 1.8048005 16.75 5.625 C19.45803501 8.93482057 20.10810771 11.239863 21 15.375 C20.34 15.375 19.68 15.375 19 15.375 C18.07510999 14.16145005 17.20950122 12.90239293 16.375 11.625 C13.18160448 7.28506007 10.23534045 4.81426885 5 3.375 C-0.20550382 2.65493031 -5.12202807 2.53549604 -9.875 5 C-14.71763019 8.68039894 -18.13791205 12.46307952 -20 18.375 C-20.24082874 21.95930945 -20.24082874 21.95930945 -20.125 25.6875 C-20.10695313 26.94175781 -20.08890625 28.19601563 -20.0703125 29.48828125 C-20.04710937 30.44089844 -20.02390625 31.39351562 -20 32.375 C-20.66 32.045 -21.32 31.715 -22 31.375 C-23.61545542 23.83241588 -23.3015131 17.37972781 -20.30078125 10.30078125 C-18.77354872 8.0397433 -17.41775881 7.5321758 -15 6.375 C-14.67 5.385 -14.34 4.395 -14 3.375 C-9.4224733 0.40239882 -5.32996587 -0.0901686 0 0 Z " fill="#A59B6D" transform="translate(27,2.625)"/>
<path d="M0 0 C0.99 0.33 1.98 0.66 3 1 C3.05411124 3.41696872 3.09372278 5.83271787 3.125 8.25 C3.15013672 9.27287109 3.15013672 9.27287109 3.17578125 10.31640625 C3.22197186 15.07403915 2.79355344 18.0504854 -0.4375 21.5625 C-0.953125 22.036875 -1.46875 22.51125 -2 23 C-2.495 23.495 -2.99 23.99 -3.5 24.5 C-3.995 24.995 -4.49 25.49 -5 26 C-5.6496875 26.7734375 -5.6496875 26.7734375 -6.3125 27.5625 C-9.53746988 30.30969656 -12.62377485 31.0492863 -16.8359375 30.8984375 C-19.56700877 30.65271129 -22.2815299 30.35794802 -25 30 C-25 29.67 -25 29.34 -25 29 C-24.28714844 28.97421875 -23.57429688 28.9484375 -22.83984375 28.921875 C-15.76210282 28.50273556 -10.57493157 27.84185979 -5.53515625 22.42578125 C-0.1803326 15.5188348 0.30651447 8.46320514 0 0 Z " fill="#767059" transform="translate(47,19)"/>
<path d="M0 0 C-0.66 0.66 -1.32 1.32 -2 2 C-1.67 2.99 -1.34 3.98 -1 5 C-0.34 5 0.32 5 1 5 C-0.875 9.75 -0.875 9.75 -2 12 C-2.66 12 -3.32 12 -4 12 C-6.00609383 8.62976236 -7.03709276 6.65530536 -6.8125 2.6875 C-6.544375 1.800625 -6.27625 0.91375 -6 0 C-3.50907189 -1.24546405 -2.58919267 -0.7767578 0 0 Z " fill="#605537" transform="translate(30,12)"/>
<path d="M0 0 C2.97 0 5.94 0 9 0 C8.67 1.32 8.34 2.64 8 4 C8.38567131 6.68149993 8.38567131 6.68149993 9 9 C7.68 9 6.36 9 5 9 C5.33 7.68 5.66 6.36 6 5 C4.68 5 3.36 5 2 5 C2.33 6.32 2.66 7.64 3 9 C2.01 9 1.02 9 0 9 C0 6.03 0 3.06 0 0 Z " fill="#7A6F45" transform="translate(20,27)"/>
<path d="M0 0 C5.09448221 1.89794435 8.52620389 3.63294203 12 8 C12.93422387 10.34042542 13.46530117 12.52094181 14 15 C13.34 15 12.68 15 12 15 C11.07510999 13.78645005 10.20950122 12.52739293 9.375 11.25 C6.15678932 6.75725044 3.06037511 5.09394832 -2 3 C-1.34 2.01 -0.68 1.02 0 0 Z " fill="#857147" transform="translate(34,3)"/>
<path d="M0 0 C0.99 0.33 1.98 0.66 3 1 C3.05397335 3.4377963 3.09365616 5.87439685 3.125 8.3125 C3.15013672 9.34793945 3.15013672 9.34793945 3.17578125 10.40429688 C3.21217794 14.17135396 3.14378864 15.78431704 1 19 C0.34 18.67 -0.32 18.34 -1 18 C-0.9278125 16.95199219 -0.855625 15.90398438 -0.78125 14.82421875 C-0.6874471 13.4453161 -0.59370001 12.06640965 -0.5 10.6875 C-0.45230469 9.99720703 -0.40460937 9.30691406 -0.35546875 8.59570312 C-0.16120511 5.72337641 0 2.87986212 0 0 Z " fill="#6F522D" transform="translate(47,19)"/>
<path d="M0 0 C0.33 0 0.66 0 1 0 C0.54177532 3.46941546 0.10868317 6.67395049 -1 10 C-1.06970052 12.39490986 -1.08448003 14.79167691 -1.0625 17.1875 C-1.05347656 18.45980469 -1.04445313 19.73210938 -1.03515625 21.04296875 C-1.02355469 22.01878906 -1.01195312 22.99460937 -1 24 C-1.66 23.67 -2.32 23.34 -3 23 C-4.82801408 14.46497651 -4.03938905 7.68004013 0 0 Z " fill="#746959" transform="translate(8,11)"/>
<path d="M0 0 C0.99 0 1.98 0 3 0 C3.33 3.3 3.66 6.6 4 10 C3.34 9.34 2.68 8.68 2 8 C1.01 8.66 0.02 9.32 -1 10 C-0.67 6.7 -0.34 3.4 0 0 Z " fill="#876735" transform="translate(37,27)"/>
<path d="M0 0 C0.99 0.99 1.98 1.98 3 3 C2 4 1 5 0 6 C-0.7115625 6.86625 -0.7115625 6.86625 -1.4375 7.75 C-2.2109375 8.36875 -2.2109375 8.36875 -3 9 C-5.1875 8.6875 -5.1875 8.6875 -7 8 C-6.21625 7.236875 -5.4325 6.47375 -4.625 5.6875 C-1.92742283 3.09108195 -1.92742283 3.09108195 0 0 Z " fill="#7A6644" transform="translate(45,36)"/>
<path d="M0 0 C0.99 0 1.98 0 3 0 C2.814375 0.556875 2.62875 1.11375 2.4375 1.6875 C1.92448835 4.399133 2.3359276 6.34371039 3 9 C1.68 9 0.36 9 -1 9 C-0.814375 8.4225 -0.62875 7.845 -0.4375 7.25 C0.04182379 4.78490621 -0.34273163 3.38259782 -1 1 C-0.67 0.67 -0.34 0.34 0 0 Z " fill="#CAC891" transform="translate(26,27)"/>
<path d="M0 0 C0 2.64 0 5.28 0 8 C0.66 8.33 1.32 8.66 2 9 C1.01 9 0.02 9 -1 9 C-3.25 6.6875 -3.25 6.6875 -5 4 C-4.67 3.01 -4.34 2.02 -4 1 C-4 1.66 -4 2.32 -4 3 C-3.525625 2.505 -3.05125 2.01 -2.5625 1.5 C-1 0 -1 0 0 0 Z " fill="#6B643F" transform="translate(32,27)"/>
<path d="M0 0 C0.99 0.33 1.98 0.66 3 1 C3 1.66 3 2.32 3 3 C3.66 3 4.32 3 5 3 C4.67 3.99 4.34 4.98 4 6 C1.525 5.01 1.525 5.01 -1 4 C-0.67 2.68 -0.34 1.36 0 0 Z " fill="#C1AD6A" transform="translate(26,14)"/>
<path d="" fill="#000000" transform="translate(0,0)"/>
<path d="" fill="#000000" transform="translate(0,0)"/>
<path d="" fill="#000000" transform="translate(0,0)"/>
<path d="" fill="#000000" transform="translate(0,0)"/>
<path d="" fill="#000000" transform="translate(0,0)"/>
<path d="" fill="#000000" transform="translate(0,0)"/>
<path d="" fill="#000000" transform="translate(0,0)"/>
<path d="" fill="#000000" transform="translate(0,0)"/>
<path d="" fill="#000000" transform="translate(0,0)"/>
</svg>
